<svg width="34" height="34" viewBox="0 0 34 34" fill="none" xmlns="http://www.w3.org/2000/svg">
<g filter="url(#filter0_d_861_13)">
<path d="M29.7073 24.2938L23.4553 18.0431C25.2674 15.8676 26.171 13.0772 25.9781 10.2524C25.7852 7.42767 24.5108 4.78601 22.4198 2.87697C20.3289 0.967939 17.5825 -0.0614869 14.7519 0.00284319C11.9213 0.0671733 9.22442 1.22031 7.22236 3.22236C5.22031 5.22442 4.06717 7.92125 4.00284 10.7519C3.93851 13.5825 4.96794 16.3289 6.87697 18.4198C8.78601 20.5108 11.4277 21.7852 14.2524 21.9781C17.0772 22.171 19.8676 21.2674 22.0431 19.4553L28.2938 25.7073C28.3866 25.8001 28.4968 25.8737 28.618 25.9239C28.7393 25.9741 28.8693 26 29.0005 26C29.1318 26 29.2617 25.9741 29.383 25.9239C29.5043 25.8737 29.6145 25.8001 29.7073 25.7073C29.8001 25.6145 29.8737 25.5043 29.9239 25.383C29.9741 25.2617 30 25.1318 30 25.0005C30 24.8693 29.9741 24.7393 29.9239 24.618C29.8737 24.4968 29.8001 24.3866 29.7073 24.2938ZM6.02543 11.0157C6.02543 9.23758 6.5527 7.49941 7.54056 6.02097C8.52843 4.54253 9.93251 3.39023 11.5753 2.70978C13.218 2.02932 15.0257 1.85129 16.7696 2.19818C18.5135 2.54507 20.1154 3.40131 21.3728 4.65862C22.6301 5.91593 23.4863 7.51784 23.8332 9.26178C24.1801 11.0057 24.0021 12.8134 23.3216 14.4561C22.6411 16.0989 21.4888 17.5029 20.0104 18.4908C18.532 19.4787 16.7938 20.0059 15.0157 20.0059C12.6321 20.0033 10.347 19.0553 8.66154 17.3698C6.97611 15.6844 6.02808 13.3992 6.02543 11.0157Z" fill="#726F6F"/>
</g>
<defs>
<filter id="filter0_d_861_13" x="0" y="0" width="34" height="34" filterUnits="userSpaceOnUse" color-interpolation-filters="sRGB">
<feFlood flood-opacity="0" result="BackgroundImageFix"/>
<feColorMatrix in="SourceAlpha" type="matrix" values="0 0 0 0 0 0 0 0 0 0 0 0 0 0 0 0 0 0 127 0" result="hardAlpha"/>
<feOffset dy="4"/>
<feGaussianBlur stdDeviation="2"/>
<feComposite in2="hardAlpha" operator="out"/>
<feColorMatrix type="matrix" values="0 0 0 0 0 0 0 0 0 0 0 0 0 0 0 0 0 0 0.25 0"/>
<feBlend mode="normal" in2="BackgroundImageFix" result="effect1_dropShadow_861_13"/>
<feBlend mode="normal" in="SourceGraphic" in2="effect1_dropShadow_861_13" result="shape"/>
</filter>
</defs>
</svg>
