<svg width="19" height="15" viewBox="0 0 19 15" fill="none" xmlns="http://www.w3.org/2000/svg">
<path d="M18.6252 6.83262L15.6072 9.56628L16.5113 13.6362C16.5591 13.849 16.5454 14.0717 16.472 14.2764C16.3986 14.4812 16.2686 14.6589 16.0984 14.7874C15.9281 14.9159 15.7252 14.9895 15.5148 14.999C15.3045 15.0084 15.0962 14.9533 14.9159 14.8405L11.4957 12.6875L8.08276 14.8405C7.90246 14.9533 7.69413 15.0084 7.48382 14.999C7.2735 14.9895 7.07054 14.9159 6.9003 14.7874C6.73005 14.6589 6.60009 14.4812 6.52665 14.2764C6.45322 14.0717 6.43957 13.849 6.48741 13.6362L7.39015 9.57045L4.37142 6.83262C4.21175 6.68971 4.0963 6.50104 4.03953 6.2903C3.98277 6.07955 3.98722 5.8561 4.05233 5.64797C4.11743 5.43984 4.2403 5.25629 4.40552 5.12035C4.57074 4.9844 4.77095 4.9021 4.98105 4.88378L8.96008 4.5261L10.5133 0.681193C10.5944 0.479444 10.7312 0.307112 10.9065 0.185896C11.0818 0.06468 11.2877 0 11.4983 0C11.709 0 11.9149 0.06468 12.0902 0.185896C12.2655 0.307112 12.4023 0.479444 12.4834 0.681193L14.0413 4.5261L18.0189 4.88378C18.2291 4.9021 18.4293 4.9844 18.5945 5.12035C18.7597 5.25629 18.8826 5.43984 18.9477 5.64797C19.0128 5.8561 19.0172 6.07955 18.9605 6.2903C18.9037 6.50104 18.7882 6.68971 18.6286 6.83262H18.6252Z" fill="#F5C312"/>
<rect width="8" height="1" rx="0.5" fill="#F5C312"/>
<rect y="14" width="6" height="1" rx="0.5" fill="#F5C312"/>
<rect y="7" width="3" height="1" rx="0.5" fill="#F5C312"/>
</svg>
